<?xml version="1.0" standalone="no"?>
<!DOCTYPE svg PUBLIC "-//W3C//DTD SVG 1.1//EN" "http://www.w3.org/Graphics/SVG/1.1/DTD/svg11.dtd">
<svg version="1.1" xmlns="http://www.w3.org/2000/svg" viewBox="0 0 297.0693515066617 22.86608244121078" width="297.0693515066617" height="22.86608244121078"><!-- svg-source:excalidraw --><metadata></metadata><defs><style class="style-fonts">
      </style></defs><g stroke-linecap="round"><g transform="translate(286.994886009451 11.282562209311891) rotate(0 -138.46021025612018 0.1504790112934984)"><path d="M0.07 -0.68 C-46.08 -0.54, -229.92 0.48, -276.03 0.55 M-1.35 1.58 C-47.74 1.39, -230.94 -1.17, -276.99 -1.28" stroke="#1e1e1e" stroke-width="2" fill="none"></path></g><g transform="translate(286.994886009451 11.282562209311891) rotate(0 -138.46021025612018 0.1504790112934984)"><path d="M-23.38 7.98 C-15.65 4.66, -4.78 0.47, 0.07 -0.68 M-23.38 7.98 C-16.09 6.23, -11.1 2.98, 0.07 -0.68" stroke="#1e1e1e" stroke-width="2" fill="none"></path></g><g transform="translate(286.994886009451 11.282562209311891) rotate(0 -138.46021025612018 0.1504790112934984)"><path d="M-23.46 -9.12 C-15.74 -6, -4.84 -3.75, 0.07 -0.68 M-23.46 -9.12 C-16.05 -6.14, -11.03 -4.65, 0.07 -0.68" stroke="#1e1e1e" stroke-width="2" fill="none"></path></g></g><mask></mask></svg>