<?xml version="1.0" encoding="UTF-8" standalone="no"?><!DOCTYPE svg PUBLIC "-//W3C//DTD SVG 1.1//EN" "http://www.w3.org/Graphics/SVG/1.1/DTD/svg11.dtd"><svg width="100%" height="100%" viewBox="0 0 67 50" version="1.1" xmlns="http://www.w3.org/2000/svg" xmlns:xlink="http://www.w3.org/1999/xlink" xml:space="preserve" xmlns:serif="http://www.serif.com/" style="fill-rule:evenodd;clip-rule:evenodd;stroke-linejoin:round;stroke-miterlimit:2;"><path d="M63.6,39.4c-0.6,-1.4 -1.7,-2.4 -3,-3c-1.4,-0.6 -2.9,-0.6 -4.3,0c-1.3,0.6 -2.3,1.6 -2.9,3c-0.6,1.4 -0.6,2.9 0,4.3c0.3,0.7 0.7,1.2 1.2,1.8c0.5,0.5 1.1,0.9 1.7,1.2c1.4,0.6 2.9,0.6 4.3,0c0.7,-0.3 1.2,-0.7 1.8,-1.2c0.5,-0.5 0.9,-1.1 1.2,-1.8c0.5,-1.4 0.5,-3 0,-4.3Zm-0.7,4c-0.5,1.1 -1.4,2 -2.5,2.5c-0.6,0.2 -1.2,0.4 -1.8,0.4c-0.6,0 -1.3,-0.1 -1.8,-0.4c-0.6,-0.2 -1.1,-0.6 -1.5,-1c-0.4,-0.4 -0.8,-0.9 -1,-1.5c-0.5,-1.2 -0.5,-2.5 0,-3.7c0.2,-0.6 0.6,-1.1 1,-1.5c0.4,-0.4 0.9,-0.8 1.5,-1c0.6,-0.2 1.2,-0.4 1.8,-0.4c0.6,0 1.3,0.1 1.8,0.4c0.6,0.2 1.1,0.6 1.5,1c0.4,0.4 0.8,0.9 1,1.5c0.4,1.2 0.4,2.5 0,3.7Z" style="fill-rule:nonzero;"/><path d="M59.5,42.1c0.3,-0.1 0.6,-0.3 0.8,-0.5c0.2,-0.3 0.4,-0.7 0.3,-1.1c0,-0.3 -0.1,-0.5 -0.2,-0.8c-0.1,-0.2 -0.3,-0.4 -0.5,-0.6c-0.2,-0.1 -0.4,-0.3 -0.7,-0.3c-0.3,-0.1 -0.5,-0.1 -0.8,-0.1l-2.1,0l0,5.7l1.1,0l0,-2.1l0.9,0l1.7,2.1l1.4,0l-1.9,-2.3Zm-0.3,-1.1c-0.2,0.1 -0.5,0.2 -0.8,0.2l-0.9,0l0,-1.5l0.9,0c0.3,0 0.5,0.1 0.8,0.2c0.2,0.1 0.3,0.3 0.3,0.6c0,0.2 -0.1,0.4 -0.3,0.5Z" style="fill-rule:nonzero;"/><rect x="0" y="0" width="50" height="50"/><path d="M14.2,25.7c1.4,0.1 2.7,-0.4 3.6,-1.5c0.8,-1.2 1.2,-2.6 1.1,-4l0,-11.9l-2.2,0l0,11.9c0,0.9 -0.2,1.8 -0.7,2.5c-0.5,0.6 -1.2,1 -2,0.9c-0.6,0 -1.2,-0.1 -1.7,-0.4c-0.6,-0.3 -1.1,-0.6 -1.6,-1l-0.9,1.8c0.6,0.5 1.2,0.8 1.9,1.1c0.7,0.4 1.6,0.6 2.5,0.6" style="fill:#fff;fill-rule:nonzero;"/><path d="M25,25.5l1.9,0l4.1,-12.9l3.6,12.9l1.9,0l4.2,-17.2l-2.3,0c0,0 -2.7,12.4 -2.9,13.1l-3.6,-12.5l-1.9,0l-3.8,12.4l-2.7,-13l-2.4,0l3.9,17.2Z" style="fill:#fff;fill-rule:nonzero;"/><path d="M19.8,33.1c-0.2,-0.7 -0.6,-1.3 -1,-1.9c-0.4,-0.5 -1,-1 -1.6,-1.3c-0.6,-0.3 -1.3,-0.4 -2,-0.4c-0.7,0 -1.5,0.1 -2.1,0.4c-0.6,0.3 -1.2,0.7 -1.6,1.2c-0.5,0.6 -0.8,1.2 -1,1.9c-0.3,0.8 -0.4,1.7 -0.4,2.5c0,0.8 0.1,1.7 0.3,2.5c0.2,0.7 0.5,1.3 1,1.9c0.4,0.5 1,1 1.6,1.2c0.7,0.3 1.4,0.5 2.2,0.5c0.7,0 1.4,-0.1 2.1,-0.5c0.6,-0.3 1.1,-0.7 1.6,-1.2c0.5,-0.6 0.8,-1.2 1,-1.9c0.2,-0.8 0.4,-1.6 0.4,-2.5c-0.2,-0.7 -0.3,-1.6 -0.5,-2.4Zm-1.3,4.5c-0.2,0.6 -0.4,1.1 -0.8,1.6c-0.3,0.4 -0.7,0.8 -1.2,1c-0.5,0.2 -1,0.4 -1.5,0.4c-0.5,0 -1.1,-0.1 -1.5,-0.4c-0.5,-0.2 -0.9,-0.6 -1.2,-1c-0.3,-0.5 -0.6,-1 -0.8,-1.6c-0.4,-1.3 -0.4,-2.7 0,-4c0.2,-0.6 0.4,-1.1 0.8,-1.5c0.3,-0.4 0.7,-0.8 1.2,-1c1,-0.5 2.1,-0.5 3.1,0c0.5,0.2 0.9,0.6 1.2,1c0.3,0.5 0.6,1 0.8,1.5c0.3,1.3 0.3,2.7 -0.1,4Z" style="fill:#fff;fill-rule:nonzero;"/><path d="M27.2,36.4l0.2,0c0.4,-0.1 0.7,-0.2 1.1,-0.4c0.3,-0.2 0.6,-0.4 0.9,-0.7c0.2,-0.3 0.4,-0.6 0.6,-0.9c0.1,-0.4 0.2,-0.8 0.2,-1.2c0,-0.5 -0.1,-1.1 -0.3,-1.5c-0.2,-0.4 -0.5,-0.8 -0.9,-1c-0.4,-0.3 -0.8,-0.5 -1.3,-0.6c-0.5,-0.1 -1,-0.2 -1.5,-0.2l-3.8,0l0,11.7l1.2,0l0,-4.9l2.4,0l3.1,4.9l1.5,0l-3.4,-5.2Zm-3.7,-0.8l0,-4.7l2.5,0c0.7,0 1.4,0.2 2,0.6c0.5,0.4 0.8,1.1 0.8,1.8c0,0.7 -0.3,1.3 -0.8,1.7c-0.6,0.4 -1.4,0.6 -2.1,0.6l-2.4,0Z" style="fill:#fff;fill-rule:nonzero;"/><path d="M38.1,41.5c0.3,-0.1 0.7,-0.2 1,-0.3c0.3,-0.1 0.6,-0.3 0.8,-0.5c0.2,-0.2 0.4,-0.3 0.6,-0.5l0,-5l-4,0l0,1.1l2.8,0l0,3.4c-0.3,0.2 -0.6,0.4 -0.9,0.5c-0.4,0.2 -0.9,0.3 -1.4,0.3c-0.5,0 -1.1,-0.1 -1.6,-0.4c-0.5,-0.2 -0.9,-0.6 -1.3,-1c-0.4,-0.5 -0.7,-1 -0.8,-1.6c-0.2,-0.6 -0.3,-1.3 -0.3,-2c0,-0.7 0.1,-1.4 0.3,-2c0.2,-0.6 0.5,-1.1 0.8,-1.6c0.3,-0.4 0.8,-0.8 1.2,-1c0.5,-0.2 1,-0.4 1.5,-0.4c0.6,0 1.1,0.1 1.7,0.4c0.4,0.2 0.8,0.5 1.2,0.8l0.7,-1c-0.5,-0.4 -1,-0.7 -1.6,-0.9c-0.6,-0.2 -1.3,-0.4 -2,-0.3c-1.4,0 -2.8,0.6 -3.8,1.7c-0.5,0.6 -0.8,1.2 -1.1,1.9c-0.3,0.8 -0.4,1.6 -0.4,2.4c0,0.8 0.1,1.7 0.4,2.5c0.2,0.7 0.6,1.3 1,1.9c0.5,0.5 1,0.9 1.7,1.2c0.7,0.3 1.4,0.4 2.2,0.4c0.4,0.2 0.9,0.1 1.3,0Z" style="fill:#fff;fill-rule:nonzero;"/><rect x="7.4" y="39.8" width="1.8" height="1.8" style="fill:#fff;"/></svg>