<?xml version="1.0" encoding="UTF-8" standalone="no"?>
<!DOCTYPE svg PUBLIC "-//W3C//DTD SVG 1.1//EN" "http://www.w3.org/Graphics/SVG/1.1/DTD/svg11.dtd">
<svg width="100%" height="100%" viewBox="0 0 48 48" version="1.1" xmlns="http://www.w3.org/2000/svg" xmlns:xlink="http://www.w3.org/1999/xlink" xml:space="preserve" xmlns:serif="http://www.serif.com/" style="fill-rule:evenodd;clip-rule:evenodd;stroke-linejoin:round;stroke-miterlimit:2;">
    <rect id="Rectangle-path" x="0" y="0" width="38" height="38"/>
    <path id="Shape" d="M30.55,7.13L25.34,7.13L25.34,9.79L24,9.79L24,7.13L21.4,7.13L21.4,9.79L20.1,9.79L20.1,7.13L17.5,7.13L17.5,9.79L16.23,9.79L16.23,7.13L13.63,7.13L13.63,9.79L12.33,9.79L12.33,7.13L7.13,7.13L7.13,16.44L8.43,16.44L8.43,17.77L9.73,17.77L9.73,31.07L28,31.07L28,17.77L29.3,17.77L29.3,16.44L30.6,16.44L30.55,7.13Z" style="fill:white;fill-rule:nonzero;"/>
    <path d="M41,33.77L39.68,33.77L39.68,33L43.13,33L43.13,33.77L41.84,33.77L41.84,38L41,38L41,33.77Z" style="fill-rule:nonzero;"/>
    <path d="M43.76,33L44.62,33L45.88,35.47L47.13,33L48,33L48,38L47.13,38L47.13,34.5L46.13,36.6L45.66,36.6L44.66,34.5L44.66,38L43.8,38L43.76,33Z" style="fill-rule:nonzero;"/>
</svg>
